<?xml version="1.0" encoding="utf-8"?>
<svg viewBox="0 0 500 500" xmlns="http://www.w3.org/2000/svg">
  <path d="M 270.664 60.033 C 270.308 57.213 269.586 54.452 268.519 51.818 C 268.243 50.81 267.557 49.966 266.628 49.489 C 266.014 49.33 265.37 49.322 264.752 49.468 L 255.122 50.942 C 254.315 50.979 253.544 51.279 252.924 51.796 C 251.67 53.115 252.905 55.239 252.867 57.059 C 252.823 59.105 251.005 60.766 249.033 61.316 C 247.021 61.723 244.944 61.697 242.942 61.241 L 229.476 59.148 C 233.442 57.882 236.972 55.526 239.663 52.349 C 241.436 50.25 242.378 46.331 239.817 45.336 C 239.056 45.128 238.263 45.064 237.478 45.149 C 231.377 45.196 226.576 40.102 220.864 37.956 C 213.365 35.322 205.022 37.809 200.189 44.12 L 207.363 44.465 C 208.038 44.428 208.707 44.607 209.274 44.975 C 210.846 46.267 208.892 48.748 209.113 50.77 C 209.401 53.398 212.89 53.959 215.52 54.225 C 218.151 54.491 221.487 56.628 220.222 58.949 C 207.002 63.503 193.55 50.048 179.666 51.704 C 176.152 52.123 172.834 53.504 169.403 54.372 C 148.446 59.674 126.78 45.527 105.371 48.523 C 100.612 49.334 95.934 50.568 91.394 52.209 C 88.48 53.166 85.44 54.2 83.323 56.419 C 81.206 58.638 80.4 62.432 82.406 64.752 C 76.878 65.208 71.313 64.679 65.97 63.19 C 68.913 64.826 70.728 67.938 70.704 71.305 C 62.072 72.713 53.669 75.275 45.721 78.923 C 47.204 81.39 48.937 83.698 50.892 85.811 L 39.964 92.831 C 43.656 93.762 45.565 98.796 43.418 101.94 C 47.246 100.237 49.618 95.831 53.712 94.938 C 56.393 94.353 59.122 95.45 61.666 96.481 C 64.21 97.511 67.006 98.51 69.64 97.737 C 72.273 96.964 74.216 93.549 72.542 91.373 C 83.799 88.089 95.432 86.271 107.154 85.966 C 108.058 85.852 108.976 86.026 109.775 86.463 C 111.301 87.522 110.9 89.808 110.818 91.664 C 110.735 93.519 112.182 95.957 113.84 95.121 C 111.889 96.813 113.557 99.998 115.428 101.776 C 117.3 103.555 119.556 106.01 118.41 108.324 C 118.111 108.928 117.604 109.411 117.316 110.021 C 116.467 111.82 117.815 113.917 119.406 115.111 C 120.997 116.306 122.945 117.141 124.05 118.795 C 125.155 120.449 124.653 123.345 122.677 123.576 L 117.061 116.445 C 115.142 118.435 113.827 120.928 113.267 123.635 C 119.223 128.503 120.119 138.412 115.133 144.27 C 112.585 147.263 108.962 149.082 105.799 151.417 C 102.637 153.752 99.711 157.076 99.719 161.007 C 99.732 167.798 99.178 174.107 101.722 180.404 C 106.415 192.014 111.833 203.317 117.944 214.247 C 119.549 217.117 121.623 220.263 124.873 220.757 C 120.765 210.755 117.066 200.597 113.778 190.284 C 115.92 190.292 118.395 190.463 119.651 192.198 C 120.69 193.635 120.467 195.588 120.79 197.332 C 121.201 199.022 121.886 200.633 122.818 202.1 L 142.438 237.048 C 144.064 239.946 145.93 243.055 149.038 244.229 C 151.025 244.979 153.325 244.837 155.154 245.917 C 156.588 246.764 157.553 248.266 159.015 249.064 C 163.148 251.318 168.895 246.994 172.758 249.686 C 173.862 250.456 174.564 251.679 175.582 252.56 C 179.149 255.649 185.001 253.583 189.119 255.887 C 191.773 257.372 193.148 260.342 194.564 263.034 C 198.11 269.777 203.847 276.382 211.446 276.919 C 213.833 277.088 216.271 276.635 218.604 277.166 C 220.938 277.697 223.235 279.733 222.86 282.097 C 222.218 286.149 224.22 290.585 223.682 294.652 C 222.703 302.061 212.195 305.316 211.292 312.734 C 211.094 314.358 211.404 316.035 211.017 317.625 C 210.543 319.573 209.08 321.16 208.56 323.096 C 207.574 326.767 210.204 330.419 213.093 332.888 C 215.981 335.358 219.427 337.487 221.006 340.943 C 222.675 344.597 221.856 348.857 222.398 352.836 C 223.584 361.525 231.088 367.966 238.811 372.119 C 241.164 373.384 243.691 374.609 245.214 376.804 C 247.202 379.67 247.004 383.447 247.667 386.87 C 249.293 395.254 256.351 402.162 256.551 410.7 C 256.694 416.768 253.32 422.274 251.305 428 C 247.483 439.101 248.685 451.317 254.6 461.459 C 256.107 464.004 257.91 466.404 258.976 469.163 C 260.879 474.087 260.262 479.685 262.016 484.664 C 264.336 491.246 270.71 496.683 270.1 503.636 C 272.994 509.645 279.383 512.598 285.809 514.386 L 297.324 517.592 C 299.529 518.206 301.833 518.824 304.079 518.38 C 306.324 517.935 308.467 516.071 308.409 513.783 C 302.762 512.509 296.933 511.155 292.278 507.714 C 287.623 504.273 284.434 498.145 286.201 492.632 C 287.02 490.076 288.762 487.124 287.105 485.012 C 286.157 483.802 284.423 483.486 283.353 482.383 C 281.684 480.662 282.257 477.77 283.457 475.695 C 284.657 473.62 286.391 471.765 286.874 469.417 C 287.375 466.727 286.15 464.01 283.804 462.602 C 285.939 461.796 287.881 460.55 289.504 458.945 C 291.003 457.233 291.695 454.594 290.516 452.648 C 294.018 453.093 298.151 453.31 300.45 450.631 C 302.286 448.493 302.159 445.295 301.434 442.571 C 300.709 439.848 299.483 437.202 299.445 434.384 C 307.522 434.767 315.617 434.492 323.65 433.563 C 322.489 429.651 319.849 426.345 316.291 424.347 C 319.929 423.731 323.244 419.375 324.393 415.869 C 325.542 412.363 325.249 408.544 324.539 404.923 C 324.266 403.991 324.229 403.005 324.43 402.055 C 324.84 400.75 326.122 399.953 327.309 399.271 L 345.367 388.9 C 346.445 388.361 347.422 387.639 348.255 386.769 C 350.147 384.546 349.867 381.192 348.898 378.438 C 347.929 375.685 346.377 373.096 346.004 370.202 C 344.888 361.545 354.155 355.333 357.283 347.184 C 358.51 343.986 358.76 340.51 358.998 337.092 C 359.253 333.422 359.272 329.159 356.454 326.794 C 353.752 324.526 349.532 325.032 346.705 322.923 C 344.113 320.99 343.219 317.235 340.388 315.673 C 337.817 314.255 334.593 315.157 331.733 314.49 C 326.698 313.315 323.53 307.512 318.388 306.975 C 315.487 306.672 312.203 308.09 309.825 306.4 C 307.73 304.912 307.646 301.919 307.247 299.38 C 305.815 291.297 299.5 284.962 291.423 283.504 C 288.431 283.025 285.175 283.207 282.63 281.563 C 280.053 279.898 278.872 276.782 276.848 274.477 C 273.586 270.761 268.448 269.441 263.635 268.31 L 244.057 263.708 C 240.582 262.891 236.102 262.457 234.237 265.502 C 233.685 266.661 233.294 267.89 233.076 269.155 C 231.642 273.85 227.344 277.085 222.436 277.164 C 220.795 274.365 218.137 272.308 215.016 271.423 C 213.031 270.869 210.906 270.808 209.012 269.994 C 204.659 267.869 202.987 262.522 205.353 258.296 C 207.674 254.164 206.939 248.991 203.56 245.669 C 200.23 242.68 195.414 241.958 190.95 242.257 C 189.781 239.706 191.736 236.828 193.843 234.974 C 195.949 233.12 198.507 231.297 198.966 228.528 C 199.688 224.173 194.131 220.866 189.912 222.164 C 185.693 223.463 183 227.561 181.22 231.6 C 180.199 233.918 179.33 236.359 177.719 238.313 C 176.108 240.267 173.514 241.667 171.06 241.04 C 167.586 240.152 166.244 236.024 165.475 232.522 C 164.444 227.823 163.406 223.059 163.622 218.253 C 163.838 213.447 165.459 208.512 169.003 205.258 C 174.778 199.957 183.637 200.476 191.431 201.322 C 189.589 199.247 190.044 195.751 192.014 193.798 C 194.126 191.922 197.027 191.209 199.768 191.893 C 202.116 192.382 204.232 193.647 205.774 195.485 C 207.989 198.185 208.619 201.831 210.293 204.896 C 211.967 207.961 215.731 210.575 218.812 208.931 C 221.473 207.51 221.896 203.82 221.233 200.877 C 220.571 197.935 219.164 195.073 219.404 192.066 C 219.862 186.328 225.81 182.875 231.058 180.512 C 236.307 178.149 242.316 174.971 243.148 169.275 C 243.176 168.16 243.387 167.057 243.771 166.01 C 244.353 165.085 245.162 164.324 246.121 163.8 C 261.438 153.677 277.011 143.431 294.518 137.899 C 295.429 137.611 295.536 137.931 296.464 137.706 C 297.764 136.955 296.903 134.878 295.657 134.041 C 294.412 133.204 292.747 132.563 292.431 131.096 C 292.198 130.017 292.834 128.959 292.999 127.868 C 293.404 125.188 290.198 122.714 287.709 123.785 C 286.302 121.923 289.085 119.759 291.335 119.139 C 298.092 117.28 305.027 116.147 312.025 115.759 C 312.832 115.631 313.659 115.772 314.379 116.16 C 315.554 116.974 315.404 118.841 314.571 120.003 C 313.738 121.165 312.443 121.894 311.405 122.878 C 309.093 125.13 308.229 128.482 309.163 131.571 C 312.816 133.429 316.787 135.341 320.833 134.687 C 324.878 134.032 328.469 129.487 326.567 125.856 C 324.797 122.475 319.477 121.713 318.563 118.008 C 317.492 113.67 323.633 109.811 322.249 105.563 C 321.643 103.701 319.789 102.606 318.365 101.262 C 314.925 97.89 313.911 92.75 315.812 88.324 C 311.108 89.152 306.295 87.646 302.901 84.284 C 299.813 81.168 297.35 76.251 292.965 76.391 C 288.941 76.519 285.474 81.213 281.712 79.781 C 280.786 79.429 279.81 78.712 278.913 79.132 C 278.318 79.519 277.933 80.157 277.869 80.865 C 276.913 85.436 278.558 90.645 276.066 94.596 C 273.355 98.894 267.083 99.49 263.796 103.367 C 262.012 105.471 261.321 108.307 259.681 110.525 C 258.04 112.744 254.559 114.154 252.591 112.221 C 254.583 108.126 253.482 103.197 249.937 100.339 C 248.109 99.147 246.139 98.189 244.073 97.487 C 241.765 96.51 239.569 95.286 237.523 93.837 C 236.499 93.219 235.666 92.328 235.119 91.264 C 234.686 89.931 234.744 88.488 235.283 87.195 C 237.317 81.363 242.415 77.138 248.522 76.222 C 251.143 75.865 254.193 75.991 255.927 73.994 C 256.845 72.937 257.327 71.34 258.659 70.911 C 259.511 70.74 260.395 70.849 261.18 71.221 L 270.962 74.664 C 272.053 75.157 273.254 75.356 274.446 75.241 C 275.672 75.076 276.563 73.993 276.489 72.758 C 276.177 71.134 273.677 70.354 273.904 68.716 C 274.032 68.185 274.317 67.705 274.723 67.339 C 281.871 59.732 292.043 55.715 302.459 56.387 C 303.694 58.414 301.742 60.815 300.117 62.546 C 298.492 64.277 297.187 67.37 299.151 68.702 C 299.957 69.113 300.852 69.315 301.756 69.289 C 304.164 69.615 306.504 70.325 308.688 71.392 C 312.068 72.863 315.383 74.472 318.634 76.22 C 318.347 74.077 318.073 71.819 318.885 69.815 C 319.697 67.811 322.006 66.24 324.022 67.02 C 325.966 67.772 326.962 70.345 329.033 70.581 C 331.795 70.896 332.884 66.815 331.731 64.286 C 330.577 61.757 328.293 59.64 328.103 56.867 C 327.974 54.996 328.686 52.675 327.191 51.543 C 326.66 51.202 326.056 50.991 325.428 50.924 L 288.113 44.058 C 285.898 43.65 282.696 43.962 282.598 46.213 C 282.543 47.47 283.665 48.713 283.168 49.868 C 282.638 51.101 280.895 50.988 279.625 51.424 C 277.656 52.101 276.667 54.44 276.856 56.514 C 277.203 58.575 278.001 60.533 279.194 62.249 C 276.767 61.234 273.092 61.048 270.664 60.033 Z" fill="#3f3d56" style=""/>
  <path d="M 240.891 28.357 C 236.071 26.762 230.768 28.35 227.618 32.332 C 227.003 33.141 226.487 34.256 227.002 35.132 C 227.739 36.388 229.618 35.892 231.003 35.443 C 233.04 34.715 235.256 34.662 237.324 35.292 C 238.625 35.739 239.789 36.528 241.096 36.958 C 242.392 37.5 243.881 37.282 244.968 36.392 C 245.864 35.477 245.921 34.056 245.922 32.775 C 246.048 31.907 245.776 31.028 245.181 30.384 C 244.658 30.081 244.07 29.907 243.467 29.877 C 242.115 29.627 240.893 28.913 240.011 27.858" fill="#3f3d56" style=""/>
  <path d="M 254.346 24.611 C 252.047 24.486 250.431 26.84 251.375 28.94 C 252.992 29.381 254.682 29.491 256.342 29.264 C 258.036 29.001 259.406 27.745 259.814 26.08 C 257.859 26.436 255.841 26.051 254.155 25" fill="#3f3d56" style=""/>
  <path d="M 299.489 18.354 C 295.087 19.29 290.811 20.743 286.751 22.681 C 290.681 24.192 293.162 28.094 292.863 32.294 C 292.692 33.08 292.711 33.895 292.921 34.671 C 293.389 35.805 294.745 36.231 295.937 36.522 C 298.078 37.173 300.314 37.459 302.55 37.366 C 304.823 37.247 306.882 35.989 308.024 34.021 C 308.348 33.101 308.729 32.202 309.163 31.33 C 312.019 26.979 320.506 32.24 323.573 28.034 C 324.654 26.553 324.555 24.323 325.963 23.15 C 326.692 22.638 327.536 22.316 328.42 22.212 C 334.589 20.986 340.819 20.099 347.084 19.554 C 350.053 19.296 353.922 18.23 353.946 15.25 C 342.765 13.054 331.172 14.614 320.969 19.686 C 317.293 21.528 312.43 25.401 308.889 22.96 C 307.564 22.046 307.629 19.585 305.804 18.557 C 303.939 17.506 301.469 17.934 299.489 18.354 Z" fill="#3f3d56" style=""/>
  <path d="M 336.054 25.192 L 341.303 26.201 C 337.203 26.019 333.878 29.482 334.225 33.571 C 339.14 35.213 344.499 33.615 349.676 33.834 C 354.854 34.052 360.878 37.75 359.994 42.857 C 359.727 44.4 358.835 45.943 359.299 47.44 C 359.624 48.489 360.549 49.233 361.071 50.2 C 362.159 52.213 361.289 54.759 359.915 56.589 C 358.541 58.419 356.695 59.88 355.489 61.825 C 352.489 66.662 354.193 72.915 355.98 78.319 C 356.497 80.361 357.451 82.267 358.776 83.904 C 361.424 86.718 365.738 86.963 369.601 87.02 C 372.414 87.061 375.635 86.922 377.413 84.743 C 379.735 81.898 378.112 77.46 379.64 74.122 C 381.028 71.09 384.565 69.789 387.77 68.866 C 393.641 67.176 399.624 65.739 405.174 63.187 C 412.066 60.016 418.507 55.076 426.082 54.668 C 428.207 54.554 430.385 54.805 432.432 54.222 C 434.479 53.64 436.424 51.87 436.269 49.748 C 436.136 47.934 434.602 46.602 433.403 45.235 C 432.204 43.868 431.262 41.766 432.364 40.319 L 452.219 36.61 C 450.812 32.775 449.716 27.723 452.95 25.227 C 454.117 24.326 455.679 23.966 456.673 22.877 C 458.366 21.021 457.514 17.823 455.56 16.245 C 453.605 14.666 450.962 14.3 448.458 14.092 C 439.752 13.369 430.996 13.847 422.273 14.325 C 405.222 15.259 388.17 16.194 371.119 17.129 C 367.686 17.317 363.723 17.03 360.575 18.201 C 357.909 19.192 356.014 21.012 352.966 21.651 C 347.339 22.832 341.146 22.033 336.054 25.192 Z" fill="#3f3d56" style=""/>
  <path d="M 430.081 66.679 C 429.546 66.594 428.999 66.718 428.553 67.025 C 428.258 67.35 428.083 67.765 428.056 68.203 C 427.717 70.135 428.121 72.124 429.186 73.771 C 430.291 75.417 432.202 76.333 434.177 76.165 C 436.541 75.863 438.282 73.847 440.455 72.863 C 443.804 71.348 458.025 68.986 448.187 63.672 C 444.797 61.84 442.607 63.457 439.935 64.663 C 436.894 66.218 433.488 66.915 430.081 66.679 Z" fill="#3f3d56" style=""/>
  <path d="M 544.183 186.252 C 544.529 188.11 544.87 190.067 544.261 191.857 C 543.652 193.647 541.736 195.143 539.926 194.594 C 538.522 194.169 537.711 192.757 536.714 191.68 C 531.168 185.694 518.657 189.16 515.232 181.753 C 513.834 178.731 514.784 175.109 513.83 171.919 C 512.593 168.126 508.947 165.649 504.965 165.896 C 503.199 166.151 501.481 166.664 499.864 167.419 C 489.033 171.757 477.663 174.601 466.065 175.873 C 463.861 176.007 461.681 176.404 459.571 177.054 C 454.809 178.781 451.555 183.196 449.239 187.701 C 446.924 192.206 445.214 197.083 442.11 201.085 C 438.847 205.292 434.275 208.237 430.01 211.424 C 428.368 212.482 427 213.916 426.019 215.607 C 425.094 217.505 425.147 219.713 425.218 221.823 L 426.09 247.452 C 426.202 250.748 426.343 254.163 427.818 257.113 C 429.661 260.796 433.3 263.209 435.825 266.463 C 438.402 269.807 439.744 273.939 439.625 278.159 C 439.571 279.856 439.402 281.863 440.724 282.928 C 441.527 283.449 442.468 283.72 443.426 283.705 L 478.094 286.543 C 484.192 287.042 490.951 287.863 494.932 292.509 C 496.811 294.701 498.321 297.855 501.199 298.09 C 502.434 298.191 503.635 297.684 504.87 297.586 C 507.985 297.34 510.722 299.704 512.449 302.309 C 515.063 306.278 516.25 311.019 515.814 315.752 C 515.531 318.723 514.61 321.611 514.411 324.589 C 513.655 335.919 523.261 345.763 523.447 357.118 C 523.556 363.796 520.386 370.037 517.295 375.958 C 522.284 383.516 518.199 393.579 520.185 402.415 C 522.069 410.797 529.058 417.359 530.8 425.772 C 531.597 429.623 531.643 434.363 535.039 436.347 C 536.529 437.073 538.181 437.404 539.836 437.307 C 549.819 437.426 559.688 435.179 568.636 430.751 C 572.836 428.667 577.188 425.556 577.921 420.925 C 578.513 417.191 576.619 413.014 578.546 409.762 C 580.818 405.928 586.636 406.232 589.978 403.285 C 595.4 398.503 591.172 389.384 593.369 382.497 C 595.343 376.306 602.14 373.017 605.509 367.461 C 606.835 365.072 607.787 362.493 608.331 359.815 C 609.874 353.414 610.835 346.887 611.201 340.313 C 611.291 336.319 611.585 332.332 612.083 328.368 C 615.716 305.8 638.027 290.688 645.27 269.008 C 645.962 266.938 646.287 264.18 644.445 263.008 C 643.353 262.487 642.114 262.358 640.937 262.641 L 624.956 264.656 C 622.971 264.906 620.867 265.14 619.044 264.316 C 617.221 263.491 615.915 261.185 616.882 259.434 C 619.596 254.517 614.012 248.304 611.532 243.265 C 604.852 229.698 596.896 216.797 587.774 204.735 C 587.19 204.115 586.824 203.321 586.732 202.474 L 591.268 202.625 C 589.737 197.131 587.21 191.119 581.873 189.109 C 578.865 187.977 575.534 188.368 572.325 188.544 C 563.134 189.046 553.28 187.658 544.183 186.252 Z" fill="#3f3d56" style=""/>
  <path d="M 572.333 62.445 C 574.738 65 577.433 67.708 580.913 68.153 C 587.06 68.939 591.479 62.583 594.293 57.062 C 594.509 59.989 597.016 62.211 599.948 62.076 C 601.465 61.82 602.913 61.254 604.201 60.413 C 616.379 53.757 630.02 50.231 643.898 50.151 C 643.622 47.973 645.035 45.939 647.172 45.438 C 649.993 44.878 652.535 47.318 653.896 49.852 C 655.257 52.386 656.106 55.323 658.269 57.22 C 660.431 59.117 664.618 59.034 665.472 56.288 C 666.292 53.651 663.545 51.402 661.263 49.847 C 658.98 48.292 656.575 45.415 658.112 43.12 C 669.772 40.539 681.505 37.948 693.437 37.435 C 695.468 37.506 697.492 37.157 699.383 36.411 C 701.203 35.518 702.649 33.491 702.159 31.524 C 696.834 32.776 691.28 30.681 688.107 26.224 C 704.664 24.858 722.273 23.693 736.945 31.483 C 738.706 35.263 729.732 38.408 732.133 41.817 C 732.899 42.904 734.433 43.032 735.763 43.057 C 745.959 43.246 756.214 43.432 766.295 41.892 C 769.979 41.33 773.7 40.536 777.399 40.992 C 783.559 41.751 788.829 45.862 794.89 47.202 C 797.356 47.748 800.122 47.766 802.202 46.331 C 804.281 44.897 805.175 41.63 803.471 39.764 C 809.178 34.171 818.649 35.558 826.177 38.235 C 833.706 40.913 840.838 45.231 848.806 45.828 C 854.52 46.256 860.313 44.719 865.959 45.696 C 869.507 46.31 872.809 47.888 876.276 48.858 C 882.835 50.692 889.773 50.305 896.582 50.393 C 913.956 50.627 931.14 54.042 947.284 60.468 C 949.384 61.152 951.308 62.288 952.921 63.798 C 954.423 65.407 955.189 67.906 954.179 69.862 L 937.497 67.424 C 939.069 70.519 943.135 71.046 946.438 72.113 C 949.74 73.181 953.164 76.827 951.179 79.674 C 947.601 78.535 944.359 82.112 942.551 85.404 C 940.744 88.695 938.542 92.637 934.792 92.837 C 931.434 93.017 927.374 90.158 925.185 92.71 C 928.209 96.525 930.798 100.664 932.905 105.052 C 935.067 109.557 936.607 115.232 933.684 119.285 C 933.225 120.009 932.527 120.55 931.712 120.815 C 929.325 121.419 927.775 118.499 926.063 116.729 C 923.906 114.499 920.644 113.868 917.723 112.822 C 914.802 111.776 911.726 109.718 911.497 106.624 C 911.355 104.699 912.371 102.91 913.12 101.131 C 914.378 98.132 914.928 94.883 914.728 91.637 C 914.564 89.026 913.832 86.309 911.956 84.485 C 910.081 82.66 906.843 82.081 904.83 83.752 C 903.89 84.532 903.137 85.779 901.917 85.826 C 899.762 85.909 898.107 82.15 896.372 83.433 C 896.576 84.8 896.292 86.195 895.571 87.374 C 890.396 91.875 882.446 89.971 875.774 91.561 C 872.601 92.469 869.564 93.796 866.741 95.506 C 865.686 95.957 864.787 96.711 864.16 97.673 C 863.327 99.291 864.245 101.364 865.713 102.44 C 867.27 103.395 869.019 103.992 870.835 104.188 C 878.969 105.729 887.221 108.113 893.643 113.338 C 900.065 118.562 904.276 127.199 902.244 135.224 L 886.203 119.897 C 886.813 126.332 887.158 132.786 887.24 139.256 C 887.344 140.52 887.171 141.791 886.732 142.98 C 885.589 145.506 882.489 146.356 879.773 146.913 C 876.571 147.522 874.615 150.786 875.589 153.897 C 876.554 157.042 878.96 159.494 881.163 161.938 C 883.366 164.381 885.534 167.158 885.822 170.435 C 886.111 173.713 883.638 177.407 880.356 177.179 C 877.868 177.006 876.022 174.779 874.961 172.522 C 873.9 170.265 873.268 167.751 871.674 165.833 C 866.848 160.029 856.008 162.515 851.684 156.328 C 849.443 158.869 848.678 162.39 849.662 165.632 C 851.674 164.373 854.427 165.543 855.938 167.373 C 857.449 169.202 858.162 171.548 859.349 173.603 C 860.951 176.376 863.499 178.834 863.723 182.028 C 863.663 183.236 863.684 184.446 863.784 185.652 C 864.181 187.587 865.817 188.977 866.951 190.595 C 869.59 194.359 869.46 199.53 867.759 203.801 C 866.057 208.072 863.001 211.641 859.974 215.101 C 854.687 221.144 849.292 227.152 843.024 232.171 C 841.236 233.603 839.327 235.011 838.213 237.014 C 837.099 239.016 837.042 241.826 838.754 243.349 C 837.529 243.41 835.332 244.013 834.108 244.074 C 833.677 239.161 833.583 234.224 833.827 229.298 C 828.994 226.977 823.79 233.192 824.413 238.517 C 825.037 243.843 828.889 248.116 831.631 252.724 C 833.637 256.093 835.127 260.022 834.458 263.885 C 833.788 267.748 830.339 271.312 826.433 270.972 C 820.22 270.43 817.621 261.51 811.469 260.489 C 810.926 260.362 810.357 260.419 809.85 260.65 C 808.936 261.151 808.777 262.373 808.726 263.414 C 808.474 268.521 808.257 273.831 810.25 278.54 C 813.167 285.428 820.701 291.213 819.121 298.525 C 810.606 294.567 806.18 285.019 804.17 275.848 C 802.16 266.676 801.825 257.048 798.222 248.378 C 795.486 251.884 789.736 248.985 787.236 245.307 C 784.866 241.819 783.407 237.785 781.108 234.25 C 778.809 230.716 775.287 227.551 771.075 227.357 C 766.659 227.153 762.829 230.183 759.461 233.047 C 756.691 235.401 753.847 237.849 752.229 241.103 C 749.873 245.84 750.489 251.423 750.375 256.712 C 750.253 262.43 749.041 268.462 745.144 272.648 C 741.247 276.833 734.054 278.291 729.756 274.519 C 727.512 272.549 726.426 269.607 725.458 266.783 C 720.793 253.168 716.908 239.298 713.822 225.241 C 713.099 228.449 710.282 232.585 707.591 230.695 C 706.987 230.187 706.498 229.556 706.155 228.845 C 701.135 220.336 691.838 215.233 682.444 212.173 C 673.051 209.113 663.168 207.685 653.878 204.322 C 648.673 202.437 643.701 199.96 639.06 196.941 C 636.65 200.482 636.376 205.059 638.347 208.862 C 640.408 212.511 645.071 214.622 649.062 213.346 C 651.125 212.687 652.867 211.255 654.914 210.548 C 656.96 209.841 659.707 210.188 660.602 212.16 C 661.459 214.048 660.164 216.331 660.806 218.301 C 661.785 221.303 666.311 221.534 667.894 224.265 C 669.072 226.297 668.103 228.996 666.421 230.636 C 664.74 232.275 662.496 233.175 660.444 234.316 C 653.783 238.02 649.047 244.342 643.226 249.261 C 637.405 254.18 629.193 257.772 622.255 254.617 C 623.909 246.243 613.935 240.096 612.1 231.761 C 611.496 229.017 611.809 226.103 610.947 223.429 C 609.699 219.558 606.264 216.897 603.447 213.963 C 596.543 206.697 592.869 196.95 593.257 186.935 C 593.409 183.49 594.042 179.989 593.257 176.631 C 592.473 173.273 589.693 170.023 586.248 170.176 C 578.38 170.523 568.468 171.108 564.34 164.401 C 562.866 162.007 562.225 158.501 564.355 156.667 C 565.858 155.373 568.076 155.495 570.049 155.689 L 587.777 157.433 C 591.924 157.841 596.406 158.178 599.964 156.01 C 603.522 153.843 605.063 148.089 601.769 145.539 C 599.362 143.675 595.049 143.776 594.349 140.814 C 593.766 138.346 596.497 135.547 595.022 133.485 C 593.965 132.006 591.587 132.416 590.146 133.525 C 588.705 134.633 587.66 136.254 586.047 137.093 C 583.218 138.565 579.838 137.164 576.795 136.212 C 573.751 135.26 569.671 135.179 568.195 138.006 C 566.544 141.167 569.659 145.309 568.021 148.477 C 565.855 152.665 558.519 150.281 555.477 153.884 C 551.986 158.017 557.852 164.182 556.675 169.463 C 553.617 170.977 549.989 170.773 547.12 168.926 C 544.294 167.004 542.754 163.684 543.11 160.285 C 543.401 157.909 544.64 155.484 543.81 153.239 C 543.139 151.424 541.317 150.343 539.623 149.407 L 522.395 139.888 C 520.796 142.855 522.818 146.533 525.347 148.762 C 527.876 150.99 531.043 152.669 532.705 155.602 C 534.886 159.82 533.405 165.007 529.326 167.438 C 528.828 167.782 528.204 167.891 527.618 167.736 C 527.063 167.41 526.664 166.873 526.511 166.247 C 523.471 158.468 518.908 150.799 511.611 146.735 C 504.315 142.672 493.831 143.507 489.047 150.353 C 487.91 151.978 487.148 153.832 486.158 155.55 C 480.898 164.683 469.622 169.007 459.087 168.725 C 458.057 168.782 457.032 168.541 456.134 168.031 C 454.432 166.855 454.508 164.36 454.769 162.307 L 455.875 153.596 C 456.097 151.847 456.419 149.913 457.803 148.821 C 459.755 147.282 462.57 148.253 465.056 148.217 C 468.913 148.037 472.246 145.464 473.398 141.779 C 474.421 138.076 473.311 134.111 470.514 131.478 C 469.375 130.408 467.846 129.064 468.448 127.622 C 468.934 126.814 469.752 126.263 470.683 126.116 C 475.148 124.82 479.865 124.48 484.255 122.95 C 488.645 121.421 492.902 118.291 493.942 113.76 C 494.261 112.371 494.406 110.689 495.653 110.001 C 496.279 109.736 496.951 109.599 497.63 109.597 C 502.564 108.895 506.145 104.543 505.883 99.566 C 507.987 98.096 510.935 99.178 512.97 100.741 C 515.006 102.305 516.803 104.371 519.279 105.045 C 523.894 106.301 528.355 102.215 533.138 102.196 C 535.149 102.188 537.232 102.899 539.124 102.217 C 541.042 101.526 542.188 99.616 543.66 98.205 C 545.133 96.794 547.716 95.934 549.076 97.454 L 547.918 88.878 C 552.635 90.07 557.637 89.166 561.638 86.398 L 546.675 81.342 C 546.154 81.212 545.674 80.955 545.276 80.594 C 544.188 79.423 545.269 77.597 546.153 76.266 C 548.269 73.08 548.625 67.833 545.145 66.247 C 542.77 65.165 540.043 66.464 537.763 67.735 L 526.842 73.825 C 526.495 75.9 529.034 77.077 530.607 78.475 C 534.238 81.703 533.014 87.652 528.402 89.183 C 527.786 89.388 527.141 89.496 526.491 89.504 C 527.948 91.398 528.464 93.851 527.895 96.172 L 520.548 96.7 C 519.723 96.866 518.866 96.699 518.164 96.235 C 517.379 95.537 517.485 94.314 517.303 93.279 C 516.863 90.781 514.417 89.029 511.92 88.58 C 509.423 88.131 506.869 88.707 504.397 89.275 C 503.347 89.653 502.194 89.626 501.163 89.201 C 500.571 88.816 500.122 88.249 499.883 87.586 C 498.799 84.958 499.813 81.868 501.553 79.621 C 503.294 77.373 505.677 75.73 507.818 73.859 C 512.936 69.368 516.697 63.536 518.674 57.02 C 522.719 55.325 526.907 53.023 530.952 51.328 C 537.188 48.17 544.182 46.815 551.146 47.415 L 564.845 47.677 C 568.9 47.754 573.066 47.853 576.816 49.4 C 580.566 50.946 583.861 54.29 584.12 58.338 C 584.279 59.27 583.947 60.218 583.242 60.847 C 582.712 61.136 582.113 61.271 581.51 61.237 C 577.728 61.37 576.115 62.313 572.333 62.445 Z" fill="#3f3d56" style=""/>
  <path d="M 463.146 105.377 C 464.237 104.345 464.659 102.788 464.239 101.346 C 461.582 100.321 458.575 100.889 456.475 102.812 C 455.663 103.633 454.964 104.557 454.395 105.562 C 452.595 108.499 451.003 112.006 452.046 115.289 C 452.218 116.012 452.674 116.636 453.311 117.019 C 453.778 117.207 454.282 117.286 454.785 117.25 C 456.768 117.247 458.749 117.125 460.717 116.885 C 461.926 116.737 463.33 116.396 463.797 115.271 C 464.411 113.793 462.925 112.12 463.358 110.579 C 463.643 109.889 464.075 109.271 464.624 108.766 C 465.176 108.25 465.452 107.505 465.37 106.754 C 465.195 106.031 464.088 105.621 463.69 106.249" fill="#3f3d56" style=""/>
  <path d="M 473.428 92.046 C 471.667 91.642 469.851 91.528 468.053 91.709 C 467.655 91.697 467.261 91.786 466.907 91.969 C 466.564 92.221 466.316 92.581 466.201 92.991 C 465.414 95.519 466.701 98.228 469.158 99.215 C 469.804 99.363 470.422 99.612 470.991 99.951 C 472.512 101.131 471.543 103.542 471.83 105.445 C 472.154 107.582 474.222 109.375 473.843 111.503 C 473.544 113.179 471.754 114.506 472.042 116.184 C 472.344 117.941 474.574 118.469 476.351 118.61 C 477.381 118.79 478.442 118.669 479.404 118.26 C 480.369 117.6 481.056 116.606 481.331 115.47 C 482.058 113.304 482.364 111.019 482.232 108.737 C 482.224 107.7 481.963 106.68 481.472 105.766 C 480.937 105.042 480.344 104.362 479.698 103.734 C 476.293 99.773 479.878 93.864 473.428 92.046 Z" fill="#3f3d56" style=""/>
  <circle cx="195.767" cy="177.832" r="11.426" fill="#0098da" style=""/>
  <circle cx="322.19856" cy="566.51505" r="11.96804" fill="#0098da" transform="matrix(0.954737, 0, 0, 0.908974, -16.455414, -72.188654)" style=""/>
  <line style="fill: rgb(216, 216, 216); stroke: rgb(36, 154, 209); stroke-width: 5px;" x1="291.857" y1="443.846" x2="197.654" y2="177.668"/>
  <line style="fill: rgb(216, 216, 216); stroke: rgb(36, 154, 209); stroke-width: 5px;" x1="290.761" y1="440.56" x2="519.695" y2="131.663"/>
  <line style="fill: rgb(216, 216, 216); stroke-width: 5px; stroke: rgb(36, 154, 209);" x1="292.952" y1="441.655" x2="589.8" y2="363.883"/>
  <line style="fill: rgb(216, 216, 216); stroke-width: 5px; stroke: rgb(36, 154, 209);" x1="289.666" y1="440.56" x2="923.891" y2="402.222"/>
  <line style="fill: rgb(216, 216, 216); stroke-width: 5px; stroke: rgb(36, 154, 209);" x1="295.143" y1="441.655" x2="835.165" y2="183.146"/>
</svg>